@startuml token_types
hide empty members
namespace pdfparser {
enum token_type <<Enumeration>> {
	<<Const>>
	+{static} delimiter_token : int = 0

	' A token comprised of a sequence of consecutive regular characters
	+{static} regular_token   : int = 1
}
class pdftoken <<struct>> {
	+enum token_type
	+m_type        : token_type
	-m_token_str : std::string
	+pdftoken(position : std::streampos, type : token_type, token_str : std::string)
	+value() : token_type
	+str()   : std::string()
	+operator std::string()
	+sview() : std::string_view()
	+operator std::string_view()
}
pdftoken --> "1" token_type
pdftoken ..|> portion_of_stream

abstract portion_of_stream {
	[[portion_of_stream.class.pu]]
}
}
@enduml
